<svg xmlns="http://www.w3.org/2000/svg" width="167.18" height="170.554"><defs><clipPath id="a"><path data-name="Rectangle 89" fill="none" d="M0 0h15.386v9.232H0z"/></clipPath><clipPath id="b"><path data-name="Rectangle 89" fill="none" d="M0 0h15.386v9.232H0z"/></clipPath></defs><g data-name="Group 91"><g data-name="Group 87"><g data-name="Path 5"><path d="M65.427 160.287c-3.887 0-7.83-.99-11.718-2.945-3.632-1.825-7.339-4.55-11.018-8.102-6.37-6.15-12.852-14.898-19.812-26.741-6.349-10.803-11.684-21.74-15.428-31.626-4.28-11.304-6.45-21.019-6.45-28.874 0-8.115 1.927-16.084 5.73-23.685a61.635 61.635 0 0 1 6.58-10.363 68.381 68.381 0 0 1 8.535-9.043 73.087 73.087 0 0 1 21.32-13.107 69.24 69.24 0 0 1 11.968-3.56A62.853 62.853 0 0 1 67.431 1a57.897 57.897 0 0 1 23.157 4.79 59.074 59.074 0 0 1 10.107 5.62 60.292 60.292 0 0 1 8.81 7.448 61.143 61.143 0 0 1 12.76 19.39c3.104 7.522 4.679 15.513 4.679 23.751 0 8.37-1.738 18.63-5.027 29.674-3.337 11.205-8.03 22.382-13.573 32.324-2.913 5.227-6.025 10.038-9.247 14.3-3.394 4.488-6.916 8.373-10.469 11.546-3.75 3.348-7.564 5.93-11.34 7.675-3.977 1.838-7.968 2.77-11.861 2.77Z"/><path d="M67.431 2c-3.98 0-8.051.41-12.1 1.22a68.239 68.239 0 0 0-11.796 3.51 72.087 72.087 0 0 0-21.027 12.927 67.378 67.378 0 0 0-8.41 8.91 60.632 60.632 0 0 0-6.473 10.194C3.893 46.222 2 54.041 2 62c0 3.944.574 8.447 1.705 13.384 1.068 4.66 2.643 9.753 4.681 15.136 3.725 9.834 9.034 20.718 15.355 31.473 6.914 11.765 13.34 20.442 19.645 26.529 3.606 3.48 7.23 6.148 10.772 7.928 3.748 1.883 7.54 2.838 11.269 2.838 7.381 0 14.963-3.428 22.535-10.19 3.505-3.13 6.983-6.966 10.337-11.403 3.195-4.225 6.28-8.998 9.172-14.184 5.507-9.88 10.171-20.987 13.487-32.122 1.608-5.398 2.852-10.655 3.699-15.627.854-5.016 1.287-9.646 1.287-13.762 0-8.106-1.55-15.97-4.604-23.37a60.14 60.14 0 0 0-12.551-19.073 59.29 59.29 0 0 0-8.663-7.323 58.073 58.073 0 0 0-9.936-5.526A56.903 56.903 0 0 0 67.431 2m0-2c33.42 0 60.513 27.758 60.513 62 0 34.24-29.097 99.287-62.517 99.287-16.844 0-31.166-17.447-43.41-38.282C10.037 102.621 0 78.983 0 62 0 27.758 34.01 0 67.431 0Z" fill="#fff"/></g><path data-name="Rectangle 87" d="M64.016 9.186h87.054v161.368H64.016z"/><g data-name="Path 6"><path d="M46.34 106.462c-.86-.215-1.695-.44-2.431-.637-.605-.162-1.176-.315-1.658-.436-2.5-.623-6.333-2.248-10.393-6.447-4.133-4.274-7.526-10.206-10.086-17.63-1.297-3.762-1.976-6.86-2.016-9.208-.033-1.913.356-3.325 1.155-4.199 1.288-1.405 3.822-1.612 7.75-.633 2.916.727 9.794 5.299 16.351 10.87 3.342 2.84 6.2 5.598 8.264 7.975 2.885 3.323 3.39 4.934 3.427 5.611-.015.389-.028.885-.042 1.456-.055 2.178-.138 5.47-.503 8.396-.566 4.529-1.478 5.383-1.744 5.537-.402.233-1.285.469-3.214.275-1.291-.13-2.836-.426-4.86-.93Z"/><path d="M28.418 68.242c-3.489-.87-5.766-.756-6.77.339-.62.678-.92 1.857-.892 3.505.039 2.243.699 5.238 1.962 8.9 2.511 7.285 5.829 13.092 9.86 17.261 3.894 4.029 7.542 5.58 9.915 6.172.491.122 1.066.277 1.675.44.733.197 1.563.42 2.414.632 1.977.493 3.476.78 4.718.906 1.77.178 2.415-.048 2.581-.129.118-.125.848-1.049 1.326-5.159.324-2.791.403-5.895.454-7.95.014-.546.026-1.025.04-1.41-.031-.291-.335-1.7-3.18-4.976-2.032-2.34-4.852-5.061-8.156-7.868-3.105-2.638-6.43-5.168-9.364-7.125-4.102-2.735-5.97-3.385-6.583-3.538m.484-1.94c6.486 1.616 28.602 19.452 28.802 25.425-.131 3.231-.053 14.672-2.79 16.256-2.53 1.465-9.655-.813-12.904-1.623-6.486-1.617-15.441-8.069-21.183-24.721-5.742-16.652 1.59-16.955 8.075-15.338Z" fill="#fff"/></g></g><g data-name="Group 86"><g data-name="Group 84"><g data-name="Rectangle 88" stroke="#fff"><path d="m121.74 64.675 14.996 3.457-12.17 52.79-14.997-3.458z" stroke="none"/><path fill="none" d="m122.114 65.275 14.022 3.232-11.945 51.815-14.022-3.233z"/></g><g data-name="Mask Group 18" transform="rotate(-167.02 72.144 26.892)" clip-path="url(#a)"><g data-name="Ellipse 15" transform="translate(0 -6.77)" stroke="#fff"><circle cx="7.693" cy="7.693" r="7.693" stroke="none"/><circle cx="7.693" cy="7.693" r="7.193" fill="none"/></g></g></g><g data-name="Group 85"><g data-name="Rectangle 88" stroke="#fff"><path d="m149.916 77.075 12.904 8.386-29.52 45.425-12.904-8.386z" stroke="none"/><path fill="none" d="m150.062 77.767 12.066 7.841-28.974 44.586-12.066-7.841z"/></g><g data-name="Mask Group 18" transform="rotate(-146.98 93.875 19.214)" clip-path="url(#a)"><g data-name="Ellipse 15" transform="translate(0 -6.77)" stroke="#fff"><circle cx="7.693" cy="7.693" r="7.693" stroke="none"/><circle cx="7.693" cy="7.693" r="7.193" fill="none"/></g></g></g><path data-name="Rectangle 90" d="m110.86 109.705 28.326 12.024-6.973 16.429-28.326-12.024z"/></g><g data-name="Path 14"><path d="M88.666 125.05c-1.027-.162-1.986-.676-2.852-1.526-.865-.851-1.593-1.992-2.162-3.39-1.208-2.97-1.543-6.695-.943-10.492.073-.459.143-.915.213-1.367.765-4.966 1.427-9.255 4.058-11.175 1.386-1.011 3.27-1.312 5.758-.918 2.52.4 4.258 1.302 5.312 2.76 2.073 2.868 1.29 7.668.46 12.75l-.072.44c-.622 3.815-1.982 7.257-3.83 9.692-1.822 2.4-3.932 3.545-5.942 3.227Z"/><path d="M92.66 96.676c-2.35-.372-4.112-.101-5.385.828-2.464 1.798-3.11 5.991-3.86 10.847-.069.453-.14.91-.212 1.37-.586 3.707-.262 7.338.912 10.224 1.073 2.635 2.76 4.316 4.629 4.612 1.82.288 3.76-.79 5.466-3.036 1.8-2.37 3.126-5.734 3.734-9.47l.072-.439c.813-4.977 1.58-9.678-.371-12.378-.972-1.344-2.602-2.18-4.985-2.558m.156-.987c8.753 1.386 7.407 8.592 6.115 16.523-1.291 7.93-5.728 14.064-10.344 13.333-4.616-.731-7.655-7.869-6.372-15.981 1.283-8.112 1.848-15.261 10.601-13.875Z" fill="#fff"/></g><g data-name="Path 15"><path d="M102.135 122.48c-1.016-.216-1.947-.78-2.766-1.674-.82-.895-1.487-2.072-1.982-3.498-1.05-3.028-1.19-6.766-.391-10.526.097-.454.19-.906.284-1.353 1.025-4.919 1.91-9.167 4.638-10.946 1.437-.937 3.334-1.138 5.798-.614 2.496.53 4.183 1.523 5.159 3.033 1.92 2.973.885 7.725-.21 12.757l-.094.434c-.821 3.777-2.36 7.143-4.333 9.477-1.945 2.3-4.112 3.334-6.103 2.91Z"/><path d="M107.612 94.358c-2.327-.495-4.1-.317-5.42.544-2.555 1.666-3.42 5.82-4.423 10.629-.093.448-.187.9-.284 1.355-.78 3.672-.647 7.315.375 10.258.933 2.687 2.529 4.454 4.38 4.847 1.801.384 3.796-.591 5.616-2.744 1.921-2.273 3.422-5.561 4.226-9.26l.095-.435c1.072-4.927 2.085-9.58.278-12.378-.9-1.393-2.484-2.314-4.843-2.816m.208-.978c8.667 1.843 6.945 8.968 5.24 16.819-1.707 7.85-6.458 13.743-11.029 12.77-4.57-.972-7.23-8.258-5.524-16.29 1.706-8.033 2.646-15.142 11.313-13.299Z" fill="#fff"/></g><g data-name="Group 88"><g data-name="Group 85"><g data-name="Rectangle 88" stroke="#fff"><path d="m103.935 133.027 2.14-15.239 53.64 7.53-2.14 15.239z" stroke="none"/><path fill="none" d="m104.5 132.6 2-14.247 52.65 7.391-2 14.248z"/></g><g data-name="Mask Group 18" transform="rotate(98 2.363 105.615)" clip-path="url(#b)"><g data-name="Ellipse 15" transform="translate(0 -6.77)" stroke="#fff"><circle cx="7.693" cy="7.693" r="7.693" stroke="none"/><circle cx="7.693" cy="7.693" r="7.193" fill="none"/></g></g></g><path data-name="Rectangle 91" d="m138.724 121.538 21.602 3.033-3.283 23.39-21.603-3.032z"/></g><path data-name="Rectangle 92" d="m106.401 119.641 2.432.385-1.122 7.084-2.432-.385z"/><path data-name="Path 17" d="m123.41 65.793 11.39 2.631-.415 1.798-11.39-2.631Z"/><path data-name="Rectangle 94" d="m151.064 78.733 9.695 6.54-1.033 1.53-9.694-6.54z"/><path data-name="Rectangle 95" d="m105.61 124.654 2.432.385-1.038 6.554-2.432-.385z"/><path data-name="Path 16" d="M82.79 111.951s-12.066 52.015 23.043 44.162" fill="none" stroke="#fff"/></g></svg>