<svg xmlns="http://www.w3.org/2000/svg" xmlns:xlink="http://www.w3.org/1999/xlink" width="99.42" height="101.426" viewBox="0 0 99.42 101.426">
  <defs>
    <clipPath id="clip-path">
      <rect id="Rectangle_89" data-name="Rectangle 89" width="9.15" height="5.49" transform="translate(0 0)" fill="none"/>
    </clipPath>
    <clipPath id="clip-path-3">
      <rect id="Rectangle_89-3" data-name="Rectangle 89" width="9.15" height="5.49" fill="none"/>
    </clipPath>
  </defs>
  <g id="Group_91" data-name="Group 91" transform="translate(-6946.513 2782.266)">
    <g id="Group_87" data-name="Group 87" transform="translate(6946.513 -2782.266)">
      <g id="Path_5" data-name="Path 5" transform="translate(16.291 0)" fill="#1f1f1f">
        <path d="M 22.61734390258789 94.91522979736328 C 20.36982345581055 94.91522979736328 18.08651733398438 94.34048461914062 15.83087730407715 93.20694732666016 C 13.70763778686523 92.13996124267578 11.53675746917725 90.5426025390625 9.378543853759766 88.45925140380859 C 5.616384029388428 84.82759857177734 1.784597396850586 79.65399932861328 -2.335776090621948 72.64281463623047 C -6.099976062774658 66.23772430419922 -9.262255668640137 59.755615234375 -11.48072242736816 53.89726638793945 C -14.00896263122559 47.2209358215332 -15.29088306427002 41.49213409423828 -15.29088306427002 36.87000274658203 C -15.29088306427002 32.10746765136719 -14.15869617462158 27.4294548034668 -11.92576313018799 22.96593475341797 C -9.812735557556152 18.74206733703613 -6.820136070251465 14.90048122406006 -3.03112268447876 11.54789447784424 C 0.6300640106201172 8.308414459228516 4.973144054412842 5.638441562652588 9.528584480285645 3.8266282081604 C 14.24446392059326 1.951014876365662 19.04917144775391 1.000001549720764 23.80924987792969 1.000001549720764 C 28.52975654602051 1.000001549720764 33.10875701904297 1.947094917297363 37.41905212402344 3.814974784851074 C 41.58444976806641 5.620068073272705 45.32595825195312 8.204828262329102 48.53964996337891 11.49745464324951 C 51.75499725341797 14.79177474975586 54.27951812744141 18.62818908691406 56.04307556152344 22.90012168884277 C 57.86936950683594 27.32401466369629 58.79538345336914 32.02416229248047 58.79538345336914 36.87000274658203 C 58.79538345336914 41.80868148803711 57.76747894287109 47.87078857421875 55.82276916503906 54.40093612670898 C 53.84679794311523 61.03613662719727 51.06769180297852 67.6549072265625 47.78589248657227 73.54170989990234 C 44.24923706054688 79.88569641113281 40.22385025024414 85.16436004638672 36.14490509033203 88.80705261230469 C 31.60642433166504 92.86014556884766 27.05508995056152 94.91522979736328 22.61734390258789 94.91522979736328 Z" stroke="none"/>
        <path d="M 23.80924987792969 2 C 19.17627906799316 2 14.49590873718262 2.927200317382812 9.898151397705078 4.755828857421875 C 5.448879241943359 6.525413513183594 1.207149505615234 9.133041381835938 -2.368465423583984 12.29681396484375 C -6.061233520507812 15.56424713134766 -8.975879669189453 19.30438995361328 -11.03143692016602 23.413330078125 C -13.19423675537109 27.73670196533203 -14.29087829589844 32.2641716003418 -14.29087829589844 36.86999893188477 C -14.29087829589844 41.37070083618164 -13.03076171875 46.98034286499023 -10.54553604125977 53.54312896728516 C -8.346721649169922 59.34955596923828 -5.209720611572266 65.7789306640625 -1.473648071289062 72.13613891601562 C 2.600120544433594 79.06803131103516 6.377094268798828 84.17202758789062 10.07306671142578 87.73978424072266 C 12.15860748291016 89.75298309326172 14.24689292907715 91.29178619384766 16.27989387512207 92.31343078613281 C 18.39495086669922 93.37629699707031 20.52717971801758 93.91522979736328 22.61735153198242 93.91522979736328 C 26.80193710327148 93.91522979736328 31.129150390625 91.94564056396484 35.47880554199219 88.06118774414062 C 39.47567749023438 84.49179840087891 43.42936325073242 79.30265808105469 46.91245269775391 73.05478668212891 C 50.15919494628906 67.23084259033203 52.90892028808594 60.68174362182617 54.86436462402344 54.11551666259766 C 56.78185272216797 47.67674255371094 57.79537963867188 41.71334457397461 57.79537963867188 36.86999893188477 C 57.79537963867188 32.15574264526367 56.89483642578125 27.58396911621094 55.11875152587891 23.28170013427734 C 53.40410614013672 19.12828826904297 50.94980621337891 15.39848327636719 47.82402038574219 12.19593048095703 C 44.70152282714844 8.996742248535156 41.06700897216797 6.485687255859375 37.02142333984375 4.732528686523438 C 32.83737945556641 2.919357299804688 28.39216613769531 2 23.80924987792969 2 M 23.80924987792969 0 C 43.683837890625 0 59.79537963867188 16.50725555419922 59.79537963867188 36.86999893188477 C 59.79537963867188 57.23274230957031 42.49192047119141 95.91522979736328 22.61735153198242 95.91522979736328 C 12.60055160522461 95.91522979736328 4.083709716796875 85.53981781005859 -3.197933197021484 73.14949035644531 C -10.32196426391602 61.02735900878906 -16.29087829589844 46.96991348266602 -16.29087829589844 36.86999893188477 C -16.29087829589844 16.50725555419922 3.934665679931641 0 23.80924987792969 0 Z" stroke="none" fill="#fff"/>
      </g>
      <rect id="Rectangle_87" data-name="Rectangle 87" width="51.77" height="95.963" transform="translate(38.069 5.463)" fill="#1f1f1f"/>
      <g id="Path_6" data-name="Path 6" transform="translate(12.099 38.16) rotate(14)" fill="#1f1f1f">
        <path d="M 21.08401489257812 20.25918197631836 C 20.56070327758789 20.25918197631836 20.04842376708984 20.24997329711914 19.59644317626953 20.24185180664062 C 19.22251319885254 20.23513221740723 18.86931419372559 20.22878265380859 18.57033348083496 20.22878265380859 C 17.09069442749023 20.22878265380859 14.72548389434814 19.85346221923828 11.86034393310547 18.06543350219727 C 8.911144256591797 16.22494316101074 6.141873836517334 13.33196258544922 3.629473924636841 9.466852188110352 C 2.362734079360962 7.518102645874023 1.542883992195129 5.866882801055908 1.192684054374695 4.559052467346191 C 0.9262040257453918 3.56388258934021 0.9354540705680847 2.793262720108032 1.220174074172974 2.268592596054077 C 1.676984071731567 1.426822543144226 3.03080415725708 1.00000262260437 5.244014263153076 1.00000262260437 C 6.948974132537842 1.00000262260437 11.60042381286621 2.66730260848999 16.06369400024414 4.878272533416748 C 18.3822135925293 6.026812553405762 20.40952491760254 7.196052551269531 21.92646408081055 8.259613037109375 C 24.05438995361328 9.751548767089844 24.47079467773438 10.53612899780273 24.5514087677002 10.77567481994629 C 24.59862327575684 11.00150108337402 24.66141700744629 11.28343963623047 24.73339462280273 11.60661220550537 C 25.00752449035645 12.83744239807129 25.42178344726562 14.69747257232666 25.63310432434082 16.39568328857422 C 25.96127319335938 19.03282928466797 25.58086395263672 19.55730056762695 25.55239868164062 19.59225082397461 C 25.46783638000488 19.67264938354492 25.1129035949707 19.93438529968262 23.96368408203125 20.10102272033691 C 23.21956443786621 20.20893287658691 22.30453491210938 20.25918197631836 21.08401489257812 20.25918197631836 Z" stroke="none"/>
        <path d="M 5.244014739990234 2.000001907348633 C 4.262844085693359 2.000001907348633 3.478214263916016 2.0867919921875 2.911935806274414 2.257963180541992 C 2.612764358520508 2.348392486572266 2.228885650634766 2.506393432617188 2.099094390869141 2.745563507080078 C 2.022434234619141 2.886812210083008 1.437685012817383 4.260143280029297 4.4678955078125 8.921853065490723 C 6.900104522705078 12.66358280181885 9.565404891967773 15.45449256896973 12.3897647857666 17.21708297729492 C 15.05407524108887 18.8797721862793 17.22136497497559 19.22878265380859 18.57033538818359 19.22878265380859 C 18.8782958984375 19.22878265380859 19.23585510253906 19.2352123260498 19.61441421508789 19.24201202392578 C 20.06218528747559 19.25006294250488 20.5696849822998 19.25918197631836 21.08401489257812 19.25918197631836 C 23.41165351867676 19.25918197631836 24.36078453063965 19.044921875 24.72299194335938 18.9142894744873 C 24.77417373657227 18.58053016662598 24.82217788696289 17.77716064453125 24.58513450622559 16.10152244567871 C 24.36774444580078 14.56486320495605 24.00039482116699 12.91544246673584 23.75730514526367 11.82399272918701 C 23.69485282897949 11.54355144500732 23.63921928405762 11.29377174377441 23.59399795532227 11.08171463012695 C 23.50833129882812 10.93214130401611 23.02815437316895 10.21674919128418 21.0716552734375 8.884492874145508 C 19.56427383422852 7.858062744140625 17.58828544616699 6.737882614135742 15.35731506347656 5.645052909851074 C 10.69942474365234 3.363431930541992 6.557455062866211 2.000001907348633 5.244014739990234 2.000001907348633 M 5.244014739990234 1.9073486328125e-06 C 9.218935012817383 1.9073486328125e-06 24.54622459411621 7.110042572021484 25.52118492126465 10.52744293212891 C 25.91026496887207 12.41084289550781 27.60147476196289 19.00127220153809 26.25011444091797 20.30866241455078 C 25.00057411193848 21.51858329772949 20.56177520751953 21.22878265380859 18.57033538818359 21.22878265380859 C 14.59541511535645 21.22878265380859 8.499904632568359 18.79444313049316 2.791025161743164 10.0118522644043 C -2.917854309082031 1.229251861572266 1.269094467163086 1.9073486328125e-06 5.244014739990234 1.9073486328125e-06 Z" stroke="none" fill="#fff"/>
      </g>
    </g>
    <g id="Group_86" data-name="Group 86" transform="translate(7020.6 -2749.905) rotate(23)">
      <g id="Group_84" data-name="Group 84" transform="matrix(0.985, -0.174, 0.174, 0.985, 0, 1.589)">
        <g id="Rectangle_88" data-name="Rectangle 88" transform="translate(0 4.758)" fill="#1f1f1f" stroke="#fff" stroke-width="1">
          <rect width="9.15" height="32.208" stroke="none"/>
          <rect x="0.5" y="0.5" width="8.15" height="31.208" fill="none"/>
        </g>
        <g id="Mask_Group_18" data-name="Mask Group 18" transform="translate(9.15 5.49) rotate(180)" clip-path="url(#clip-path)">
          <g id="Ellipse_15" data-name="Ellipse 15" transform="translate(0 -4.026)" fill="#1f1f1f" stroke="#fff" stroke-width="1">
            <circle cx="4.575" cy="4.575" r="4.575" stroke="none"/>
            <circle cx="4.575" cy="4.575" r="4.075" fill="none"/>
          </g>
        </g>
      </g>
      <g id="Group_85" data-name="Group 85" transform="matrix(0.985, 0.174, -0.174, 0.985, 19.961, 1.83)">
        <g id="Rectangle_88-2" data-name="Rectangle 88" transform="translate(0 4.758)" fill="#1f1f1f" stroke="#fff" stroke-width="1">
          <rect width="9.15" height="32.208" stroke="none"/>
          <rect x="0.5" y="0.5" width="8.15" height="31.208" fill="none"/>
        </g>
        <g id="Mask_Group_18-2" data-name="Mask Group 18" transform="translate(9.15 5.49) rotate(180)" clip-path="url(#clip-path)">
          <g id="Ellipse_15-2" data-name="Ellipse 15" transform="translate(0 -4.026)" fill="#1f1f1f" stroke="#fff" stroke-width="1">
            <circle cx="4.575" cy="4.575" r="4.575" stroke="none"/>
            <circle cx="4.575" cy="4.575" r="4.075" fill="none"/>
          </g>
        </g>
      </g>
      <rect id="Rectangle_90" data-name="Rectangle 90" width="18.3" height="10.614" transform="translate(5.336 33.454)" fill="#1f1f1f"/>
    </g>
    <g id="Path_14" data-name="Path 14" transform="translate(6996.83 -2726.135) rotate(9)" fill="#1f1f1f">
      <path d="M 5.233945846557617 17.42984008789062 C 4.074805736541748 17.42984008789062 2.898005723953247 16.58279991149902 2.005305767059326 15.10589981079102 C 1.038005709648132 13.5056095123291 0.5050257444381714 11.38545989990234 0.5045257210731506 9.136019706726074 C 0.5044657588005066 8.859309196472168 0.5033457279205322 8.584629058837891 0.5022257566452026 8.312629699707031 C 0.4901857376098633 5.369629383087158 0.4797757267951965 2.827959537506104 1.787195682525635 1.51513946056366 C 2.467415809631348 0.832099437713623 3.498815774917603 0.5000494718551636 4.940345764160156 0.4999994337558746 C 6.401495933532715 0.4999494552612305 7.459025859832764 0.8488394618034363 8.173385620117188 1.566609501838684 C 9.598695755004883 2.998709440231323 9.585025787353516 5.850479602813721 9.570555686950684 8.869699478149414 L 9.569315910339355 9.133929252624512 C 9.559346199035645 11.40054988861084 9.089156150817871 13.51521968841553 8.245366096496582 15.08840942382812 C 7.435525894165039 16.59829902648926 6.366055965423584 17.42984008789062 5.233945846557617 17.42984008789062 Z" stroke="none"/>
      <path d="M 4.940355777740479 1 C 3.638595581054688 1.000040054321289 2.723065853118896 1.283960342407227 2.141465663909912 1.867959976196289 C 0.9806156158447266 3.03361988067627 0.9906253814697266 5.479049682617188 1.002225875854492 8.310619354248047 C 1.003335952758789 8.583249092102051 1.00446605682373 8.858559608459473 1.004526138305664 9.135909080505371 C 1.005005836486816 11.29551887512207 1.512385368347168 13.32384967803955 2.433205604553223 14.84725952148438 C 3.233205795288086 16.17076873779297 4.254035949707031 16.92984008789062 5.233945846557617 16.92984008789062 C 6.501125812530518 16.92984008789062 7.388545989990234 15.62805938720703 7.804745674133301 14.85207939147949 C 8.610595703125 13.34961891174316 9.05970573425293 11.31808948516846 9.06932544708252 9.131729125976562 L 9.070555686950684 8.86729907989502 C 9.084515571594238 5.954949378967285 9.097705841064453 3.204129219055176 7.818995475769043 1.919319152832031 C 7.203285694122314 1.300668716430664 6.261675834655762 0.9999485015869141 4.940355777740479 1 M 4.940325736999512 0 C 10.2103157043457 -0.0001811981201171875 10.09035587310791 4.358098983764648 10.06931591033936 9.136129379272461 C 10.04828548431396 13.91414928436279 8.013265609741211 17.92984008789062 5.233945846557617 17.92984008789062 C 2.454635620117188 17.92984008789062 0.005605697631835938 14.02029991149902 0.004526138305664062 9.136129379272461 C 0.003436088562011719 4.251949310302734 -0.3296642303466797 0.000179290771484375 4.940325736999512 0 Z" stroke="none" fill="#fff"/>
    </g>
    <g id="Path_15" data-name="Path 15" transform="matrix(0.978, 0.208, -0.208, 0.978, 7005.8, -2727.762)" fill="#1f1f1f">
      <path d="M 5.233940601348877 17.4298210144043 C 4.074800491333008 17.4298210144043 2.898000478744507 16.5827808380127 2.005300521850586 15.10588073730469 C 1.038000464439392 13.50559043884277 0.5050204992294312 11.38544082641602 0.5045204758644104 9.136000633239746 C 0.5044605135917664 8.859291076660156 0.503340482711792 8.584610939025879 0.5022205114364624 8.312610626220703 C 0.490180492401123 5.369620800018311 0.4797704815864563 2.827960968017578 1.787180542945862 1.515140891075134 C 2.467400550842285 0.8321008682250977 3.498810529708862 0.5000508427619934 4.940340518951416 0.5000008344650269 C 6.401490688323975 0.4999508559703827 7.459020614624023 0.8488408327102661 8.173380851745605 1.566610813140869 C 9.59868049621582 2.998700857162476 9.585010528564453 5.850461006164551 9.570540428161621 8.869650840759277 L 9.569300651550293 9.1339111328125 C 9.559330940246582 11.40053081512451 9.089140892028809 13.5152006149292 8.24535083770752 15.08839130401611 C 7.435510635375977 16.59829139709473 6.366040706634521 17.4298210144043 5.233940601348877 17.4298210144043 Z" stroke="none"/>
      <path d="M 4.940350532531738 1 C 3.638590335845947 1.000040054321289 2.723060607910156 1.283960342407227 2.141470432281494 1.867959976196289 C 0.9806203842163086 3.033611297607422 0.9906301498413086 5.479021072387695 1.002220153808594 8.310561180114746 C 1.003330230712891 8.583210945129395 1.004460334777832 8.85853099822998 1.004520416259766 9.135890960693359 C 1.005000114440918 11.29550075531006 1.512380599975586 13.32383155822754 2.433200359344482 14.84724044799805 C 3.233200550079346 16.17075157165527 4.254030704498291 16.9298210144043 5.233940601348877 16.9298210144043 C 6.501110553741455 16.9298210144043 7.388530731201172 15.6280403137207 7.804730415344238 14.85206031799316 C 8.610580444335938 13.34960079193115 9.059690475463867 11.31807136535645 9.069310188293457 9.131711006164551 L 9.070540428161621 8.867250442504883 C 9.084500312805176 5.954931259155273 9.097690582275391 3.204120635986328 7.818990707397461 1.919321060180664 C 7.203280448913574 1.300670623779297 6.261670589447021 0.9999504089355469 4.940350532531738 1 M 4.940320491790771 0 C 10.21031093597412 -0.000179290771484375 10.09034061431885 4.358090400695801 10.06930065155029 9.136111259460449 C 10.0482702255249 13.91413116455078 8.013250350952148 17.9298210144043 5.233940601348877 17.9298210144043 C 2.454630374908447 17.9298210144043 0.005600929260253906 14.0202808380127 0.004520416259765625 9.136111259460449 C 0.00344085693359375 4.251940727233887 -0.3296699523925781 0.0001811981201171875 4.940320491790771 0 Z" stroke="none" fill="#fff"/>
    </g>
    <g id="Group_88" data-name="Group 88" transform="translate(7008.838 -2722.198) rotate(23)">
      <g id="Group_85-2" data-name="Group 85" transform="matrix(-0.259, -0.966, 0.966, -0.259, 2.368, 18.961)">
        <g id="Rectangle_88-3" data-name="Rectangle 88" transform="translate(0 4.758)" fill="#1f1f1f" stroke="#fff" stroke-width="1">
          <rect width="9.15" height="32.208" stroke="none"/>
          <rect x="0.5" y="0.5" width="8.15" height="31.208" fill="none"/>
        </g>
        <g id="Mask_Group_18-3" data-name="Mask Group 18" transform="translate(9.15 5.49) rotate(180)" clip-path="url(#clip-path-3)">
          <g id="Ellipse_15-3" data-name="Ellipse 15" transform="translate(0 -4.026)" fill="#1f1f1f" stroke="#fff" stroke-width="1">
            <circle cx="4.575" cy="4.575" r="4.575" stroke="none"/>
            <circle cx="4.575" cy="4.575" r="4.075" fill="none"/>
          </g>
        </g>
      </g>
      <rect id="Rectangle_91" data-name="Rectangle 91" width="12.971" height="14.045" transform="matrix(0.966, -0.259, 0.259, 0.966, 23.339, 3.357)" fill="#1f1f1f"/>
    </g>
    <rect id="Rectangle_92" data-name="Rectangle 92" width="1.464" height="4.265" transform="translate(7009.788 -2711.117) rotate(9)" fill="#1f1f1f"/>
    <path id="Path_17" data-name="Path 17" d="M0,0H6.954V1.1H0Z" transform="matrix(0.974, 0.225, -0.225, 0.974, 7019.903, -2743.14)" fill="#1f1f1f"/>
    <rect id="Rectangle_94" data-name="Rectangle 94" width="6.954" height="1.098" transform="translate(7036.349 -2735.445) rotate(34)" fill="#1f1f1f"/>
    <rect id="Rectangle_95" data-name="Rectangle 95" width="1.464" height="3.947" transform="translate(7009.317 -2708.136) rotate(9)" fill="#1f1f1f"/>
    <path id="Path_16" data-name="Path 16" d="M3.6,0S-8.839,29.216,12.533,28.243" transform="translate(6992.203 -2715.065) rotate(-10)" fill="none" stroke="#fff" stroke-width="1"/>
  </g>
</svg>
