<?xml version="1.0" encoding="utf-8"?>
<!-- Generator: Adobe Illustrator 26.3.0, SVG Export Plug-In . SVG Version: 6.00 Build 0)  -->
<svg version="1.1" xmlns="http://www.w3.org/2000/svg" xmlns:xlink="http://www.w3.org/1999/xlink" x="0px" y="0px"
	 viewBox="0 0 1341 360" style="enable-background:new 0 0 1341 360;" xml:space="preserve">
<style type="text/css">
	.st0{fill:#FFFFFF;}
</style>
<g id="Layer_2">
	<g id="Guides">
	</g>
</g>
<g id="Layer_1">
	<g>
		<g>
			<path class="st0" d="M381.23,213.68v-77.61c0-1.44,0.72-2.17,2.17-2.17h30.2c6.29,0,11.17,1.7,14.66,5.1
				c3.48,3.4,5.22,8.2,5.22,14.4v6.24c0,7.39-3.48,12.15-10.45,14.27c3.31,0.43,6.05,1.87,8.22,4.33c2.17,2.47,3.25,5.78,3.25,9.94
				v8.16c0,6.2-1.74,11-5.23,14.4c-3.48,3.4-8.33,5.1-14.53,5.1H383.4C381.95,215.84,381.23,215.12,381.23,213.68z M394.99,168.82
				h16.57c6.46,0,9.69-3.1,9.69-9.3v-5.86c0-6.12-3.14-9.17-9.43-9.17h-16.82c-0.94,0-1.4,0.43-1.4,1.27v21.79
				C393.59,168.39,394.06,168.82,394.99,168.82z M394.99,205.26h17.84c6.37,0,9.56-3.06,9.56-9.18v-7.9c0-6.12-3.36-9.18-10.07-9.18
				h-17.33c-0.94,0-1.4,0.43-1.4,1.28v23.7C393.59,204.84,394.06,205.26,394.99,205.26z"/>
			<path class="st0" d="M496.31,215.84h-27.53c-6.29,0-11.15-1.74-14.59-5.23c-3.44-3.48-5.16-8.32-5.16-14.53V170.6
				c0-6.29,1.72-11.15,5.16-14.59s8.3-5.16,14.59-5.16h10.45c6.29,0,11.17,1.72,14.65,5.16c3.48,3.44,5.23,8.3,5.23,14.59v16.18
				c0,1.53-0.76,2.29-2.29,2.29h-34.15c-0.94,0-1.4,0.43-1.4,1.27v5.48c0,6.2,3.1,9.3,9.3,9.3h25.74c1.53,0,2.29,0.76,2.29,2.29
				v6.37C498.6,215.16,497.84,215.84,496.31,215.84z M462.66,180.41h22.81c0.85,0,1.27-0.42,1.27-1.28v-8.16
				c0-3.23-0.72-5.58-2.17-7.07c-1.45-1.48-3.78-2.23-7.01-2.23h-7.01c-3.23,0-5.57,0.75-7.01,2.23c-1.45,1.49-2.17,3.84-2.17,7.07
				v8.16C461.39,179.99,461.81,180.41,462.66,180.41z"/>
			<path class="st0" d="M536.58,215.84h-4.97c-6.29,0-11.15-1.74-14.59-5.23c-3.44-3.48-5.16-8.32-5.16-14.53V170.6
				c0-6.29,1.72-11.15,5.16-14.59s8.3-5.16,14.59-5.16h28.55c1.53,0,2.29,0.72,2.29,2.17v60.66c0,1.44-0.76,2.17-2.29,2.17h-8.03
				c-1.44,0-2.17-0.72-2.17-2.17v-4.59h-0.51C547.41,213.59,543.12,215.84,536.58,215.84z M549.96,194.18v-31.22
				c0-0.85-0.47-1.28-1.4-1.28h-15.17c-6.12,0-9.18,3.14-9.18,9.43v24.47c0,6.29,3.06,9.43,9.18,9.43h6.12
				C546.47,205.01,549.96,201.4,549.96,194.18z"/>
			<path class="st0" d="M588.57,215.84h-8.03c-1.45,0-2.17-0.72-2.17-2.17v-60.66c0-1.44,0.72-2.17,2.17-2.17h8.03
				c1.44,0,2.17,0.72,2.17,2.17v4.59h0.51c2.46-4.5,6.97-6.75,13.51-6.75h4.21c7.39,0,12.66,2.8,15.8,8.41
				c1.36-2.72,3.44-4.8,6.24-6.24c2.8-1.44,5.82-2.17,9.05-2.17h4.08c6.2,0,10.94,1.72,14.21,5.16c3.27,3.44,4.91,8.3,4.91,14.59
				v43.07c0,1.44-0.72,2.17-2.17,2.17h-8.16c-1.44,0-2.17-0.72-2.17-2.17v-42.56c0-6.29-3.06-9.43-9.18-9.43h-3.7
				c-7.05,0-10.58,3.7-10.58,11.09v40.91c0,1.44-0.76,2.17-2.29,2.17h-8.03c-1.45,0-2.17-0.72-2.17-2.17v-42.56
				c0-6.29-3.06-9.43-9.18-9.43h-4.46c-6.97,0-10.45,3.61-10.45,10.83v41.16C590.74,215.12,590.02,215.84,588.57,215.84z"/>
			<path class="st0" d="M688.86,215.84h-8.03c-1.45,0-2.17-0.72-2.17-2.17v-60.66c0-1.44,0.72-2.17,2.17-2.17h8.03
				c1.44,0,2.17,0.72,2.17,2.17v4.59h0.51c2.46-4.5,6.97-6.75,13.51-6.75h4.21c7.39,0,12.66,2.8,15.8,8.41
				c1.36-2.72,3.44-4.8,6.24-6.24c2.8-1.44,5.82-2.17,9.05-2.17h4.08c6.2,0,10.94,1.72,14.21,5.16c3.27,3.44,4.91,8.3,4.91,14.59
				v43.07c0,1.44-0.72,2.17-2.17,2.17h-8.16c-1.44,0-2.17-0.72-2.17-2.17v-42.56c0-6.29-3.06-9.43-9.18-9.43h-3.7
				c-7.05,0-10.58,3.7-10.58,11.09v40.91c0,1.44-0.76,2.17-2.29,2.17h-8.03c-1.45,0-2.17-0.72-2.17-2.17v-42.56
				c0-6.29-3.06-9.43-9.18-9.43h-4.46c-6.97,0-10.45,3.61-10.45,10.83v41.16C691.03,215.12,690.31,215.84,688.86,215.84z"/>
			<path class="st0" d="M824.97,215.84h-27.53c-6.29,0-11.15-1.74-14.59-5.23c-3.44-3.48-5.16-8.32-5.16-14.53V170.6
				c0-6.29,1.72-11.15,5.16-14.59c3.44-3.44,8.3-5.16,14.59-5.16h10.45c6.29,0,11.17,1.72,14.65,5.16c3.48,3.44,5.23,8.3,5.23,14.59
				v16.18c0,1.53-0.76,2.29-2.29,2.29h-34.15c-0.94,0-1.4,0.43-1.4,1.27v5.48c0,6.2,3.1,9.3,9.3,9.3h25.74
				c1.53,0,2.29,0.76,2.29,2.29v6.37C827.26,215.16,826.5,215.84,824.97,215.84z M791.32,180.41h22.81c0.85,0,1.27-0.42,1.27-1.28
				v-8.16c0-3.23-0.72-5.58-2.17-7.07c-1.45-1.48-3.78-2.23-7.01-2.23h-7.01c-3.23,0-5.57,0.75-7.01,2.23
				c-1.45,1.49-2.17,3.84-2.17,7.07v8.16C790.05,179.99,790.47,180.41,791.32,180.41z"/>
			<path class="st0" d="M865.87,215.84h-5.73c-6.12,0-10.81-1.72-14.08-5.16c-3.27-3.44-4.91-8.3-4.91-14.59v-43.07
				c0-1.44,0.72-2.17,2.17-2.17h8.03c1.44,0,2.17,0.72,2.17,2.17v42.56c0,6.29,3.06,9.43,9.18,9.43h6.12
				c6.97,0,10.45-3.61,10.45-10.83v-41.16c0-1.44,0.72-2.17,2.17-2.17h8.03c1.53,0,2.29,0.72,2.29,2.17v60.66
				c0,1.44-0.76,2.17-2.29,2.17h-8.03c-1.45,0-2.17-0.72-2.17-2.17v-4.59h-0.51C876.71,213.59,872.41,215.84,865.87,215.84z"/>
			<path class="st0" d="M917.87,233.81h-8.03c-1.45,0-2.17-0.72-2.17-2.17v-78.63c0-1.44,0.72-2.17,2.17-2.17h8.03
				c1.44,0,2.17,0.72,2.17,2.17v4.59h0.51c2.04-4.5,6.33-6.75,12.87-6.75h6.5c6.12,0,10.81,1.7,14.08,5.1
				c3.27,3.4,4.91,8.28,4.91,14.66v25.49c0,6.29-1.64,11.15-4.91,14.59c-3.27,3.44-7.96,5.16-14.08,5.16h-6.5
				c-6.54,0-10.83-2.25-12.87-6.75h-0.51v22.56C920.03,233.09,919.31,233.81,917.87,233.81z M930.48,205.01h6.75
				c6.12,0,9.18-3.14,9.18-9.43v-24.47c0-6.29-3.06-9.43-9.18-9.43h-6.75c-6.97,0-10.45,3.61-10.45,10.83v21.66
				C920.03,201.4,923.52,205.01,930.48,205.01z"/>
			<path class="st0" d="M996.88,215.84h-23.45c-1.45,0-2.17-0.72-2.17-2.17v-6.24c0-1.36,0.72-2.04,2.17-2.04h21.41
				c5.52,0,8.28-1.91,8.28-5.73v-1.53c0-3.4-2-5.99-5.99-7.77l-13.89-6.63c-4.33-2.04-7.48-4.29-9.43-6.75
				c-1.96-2.46-2.93-5.69-2.93-9.69c0-10.96,6.07-16.44,18.22-16.44h21.15c1.36,0,2.04,0.72,2.04,2.17v6.24
				c0,1.44-0.68,2.17-2.04,2.17h-18.61c-2.55,0-4.5,0.45-5.86,1.34c-1.36,0.89-2.04,2.06-2.04,3.51v1.4c0,2.72,2.17,5.1,6.5,7.14
				l14.02,7.14c4.42,1.95,7.45,4.27,9.11,6.95c1.66,2.68,2.49,6.14,2.49,10.39C1015.87,210.32,1009.54,215.84,996.88,215.84z"/>
			<path class="st0" d="M1068.63,207.18v6.63c0,1.36-0.76,2.04-2.29,2.04h-18.73c-6.29,0-11.15-1.74-14.59-5.23
				c-3.44-3.48-5.16-8.32-5.16-14.53V170.6c0-6.29,1.72-11.15,5.16-14.59c3.44-3.44,8.3-5.16,14.59-5.16h18.73
				c1.53,0,2.29,0.72,2.29,2.17v6.63c0,1.36-0.76,2.04-2.29,2.04h-16.95c-6.12,0-9.18,3.14-9.18,9.43v24.47
				c0,6.29,3.06,9.43,9.18,9.43h16.95C1067.86,205.01,1068.63,205.73,1068.63,207.18z"/>
			<path class="st0" d="M1110.43,215.84h-11.21c-6.29,0-11.15-1.74-14.59-5.23c-3.44-3.48-5.16-8.32-5.16-14.53V170.6
				c0-6.29,1.72-11.15,5.16-14.59c3.44-3.44,8.3-5.16,14.59-5.16h11.21c6.2,0,11.06,1.72,14.59,5.16c3.52,3.44,5.29,8.3,5.29,14.59
				v25.49c0,6.2-1.76,11.05-5.29,14.53C1121.49,214.1,1116.63,215.84,1110.43,215.84z M1101,205.01h7.77c6.12,0,9.18-3.1,9.18-9.3
				v-24.72c0-6.2-3.06-9.3-9.18-9.3H1101c-3.23,0-5.57,0.75-7.01,2.23c-1.45,1.49-2.17,3.84-2.17,7.07v24.72
				c0,3.23,0.72,5.59,2.17,7.07C1095.43,204.27,1097.77,205.01,1101,205.01z"/>
			<path class="st0" d="M1146.87,161.68h-6.12c-0.85,0-1.42-0.15-1.72-0.45c-0.3-0.3-0.45-0.83-0.45-1.59v-6.63
				c0-1.44,0.72-2.17,2.17-2.17h6.12c0.85,0,1.27-0.42,1.27-1.28V138.1c0-1.44,0.77-2.17,2.29-2.17h8.03c1.44,0,2.17,0.72,2.17,2.17
				v11.47c0,0.85,0.47,1.28,1.4,1.28h11.85c1.53,0,2.29,0.72,2.29,2.17v6.63c0,1.36-0.76,2.04-2.29,2.04h-11.85
				c-0.94,0-1.4,0.43-1.4,1.28v32.75c0,6.2,3.19,9.3,9.56,9.3h4.97c1.53,0,2.29,0.72,2.29,2.17v6.63c0,1.36-0.77,2.04-2.29,2.04
				h-6.88c-6.29,0-11.22-1.7-14.78-5.1c-3.57-3.4-5.35-8.2-5.35-14.4v-33.39C1148.15,162.11,1147.72,161.68,1146.87,161.68z"/>
			<path class="st0" d="M1191.6,161.68h-6.12c-0.85,0-1.42-0.15-1.72-0.45c-0.3-0.3-0.45-0.83-0.45-1.59v-6.63
				c0-1.44,0.72-2.17,2.17-2.17h6.12c0.85,0,1.27-0.42,1.27-1.28V138.1c0-1.44,0.77-2.17,2.29-2.17h8.03c1.44,0,2.17,0.72,2.17,2.17
				v11.47c0,0.85,0.47,1.28,1.4,1.28h11.85c1.53,0,2.29,0.72,2.29,2.17v6.63c0,1.36-0.76,2.04-2.29,2.04h-11.85
				c-0.94,0-1.4,0.43-1.4,1.28v32.75c0,6.2,3.19,9.3,9.56,9.3h4.97c1.53,0,2.29,0.72,2.29,2.17v6.63c0,1.36-0.77,2.04-2.29,2.04
				h-6.88c-6.29,0-11.22-1.7-14.78-5.1c-3.57-3.4-5.35-8.2-5.35-14.4v-33.39C1192.88,162.11,1192.45,161.68,1191.6,161.68z"/>
			<path class="st0" d="M1235.06,140.02v-11.6c0-1.36,0.68-2.04,2.04-2.04h8.28c1.36,0,2.04,0.68,2.04,2.04v11.6
				c0,1.45-0.68,2.17-2.04,2.17h-8.28C1235.74,142.18,1235.06,141.46,1235.06,140.02z M1235.06,213.68v-60.66
				c0-1.44,0.68-2.17,2.04-2.17h8.16c1.44,0,2.17,0.72,2.17,2.17v60.66c0,0.85-0.15,1.42-0.45,1.72c-0.3,0.3-0.83,0.45-1.59,0.45
				h-8.16C1235.78,215.84,1235.06,215.12,1235.06,213.68z"/>
			<path class="st0" d="M1264.75,140.02v-11.6c0-1.36,0.68-2.04,2.04-2.04h8.28c1.36,0,2.04,0.68,2.04,2.04v11.6
				c0,1.45-0.68,2.17-2.04,2.17h-8.28C1265.43,142.18,1264.75,141.46,1264.75,140.02z M1264.75,213.68v-60.66
				c0-1.44,0.68-2.17,2.04-2.17h8.16c1.44,0,2.17,0.72,2.17,2.17v60.66c0,0.85-0.15,1.42-0.45,1.72c-0.3,0.3-0.83,0.45-1.59,0.45
				h-8.16C1265.47,215.84,1264.75,215.12,1264.75,213.68z"/>
			<path class="st0" d="M1294.44,140.02v-11.6c0-1.36,0.68-2.04,2.04-2.04h8.28c1.36,0,2.04,0.68,2.04,2.04v11.6
				c0,1.45-0.68,2.17-2.04,2.17h-8.28C1295.12,142.18,1294.44,141.46,1294.44,140.02z M1294.44,213.68v-60.66
				c0-1.44,0.68-2.17,2.04-2.17h8.16c1.44,0,2.17,0.72,2.17,2.17v60.66c0,0.85-0.15,1.42-0.45,1.72c-0.3,0.3-0.83,0.45-1.59,0.45
				h-8.16C1295.16,215.84,1294.44,215.12,1294.44,213.68z"/>
		</g>
		<g>
			<g>
				<path class="st0" d="M235.35,244.57c1.78-1.47,4.02-2.15,6.26-1.94l30.91,3.15c1.61,0.16,3.18-0.55,4.12-1.86l44.9-62.98
					c2.72-3.81,3.79-8.47,3.01-13.12c-0.78-4.65-3.31-8.7-7.12-11.42c-3.81-2.72-8.47-3.79-13.12-3.01
					c-4.65,0.78-8.7,3.31-11.42,7.12l-30.61,42.9l8.55-52.01c0.76-4.62-0.33-9.28-3.08-13.1c-2.75-3.83-6.8-6.35-11.43-7.11
					c-4.62-0.76-9.28,0.33-13.1,3.08c-3.83,2.75-6.35,6.8-7.11,11.43l-8.14,49.5c-2.33-1.87-5.1-3.13-8.12-3.62
					c-4.62-0.76-9.28,0.33-13.1,3.08c-1.63,1.17-3.01,2.57-4.14,4.16c-2.53-2.57-5.85-4.4-9.68-5.02
					c-9.57-1.57-18.64,4.93-20.22,14.51l-4.25,25.85l-3.18,19.35c-5.02,30.55,15.74,59.48,46.29,64.5l2.35,0.39
					c3.31,0.54,6.61,0.81,9.9,0.81c12.49,0,24.63-3.88,34.98-11.31c13.07-9.38,21.7-23.28,24.31-39.15c0.2-1.23-0.11-2.48-0.87-3.47
					c-0.76-0.99-1.89-1.61-3.13-1.73l-39.12-3.77c-2.27-0.22-4.33-1.32-5.8-3.1c-1.47-1.78-2.16-4.01-1.94-6.29
					C232.46,248.1,233.56,246.04,235.35,244.57z M211.99,201.96c1.49-1.07,3.23-1.63,5.01-1.63c0.46,0,0.93,0.04,1.39,0.11
					c2.25,0.37,4.24,1.61,5.58,3.48c1.35,1.88,1.88,4.15,1.51,6.4l-4.25,25.85c-0.37,2.25-1.61,4.24-3.48,5.58
					c-1.88,1.35-4.15,1.88-6.4,1.51c0,0,0,0,0,0c-2.25-0.37-4.24-1.61-5.58-3.48c-1.35-1.88-1.88-4.15-1.51-6.4l0.54-3.3l2.65-16.09
					c0,0,0,0,0,0l1.06-6.46C208.87,205.28,210.11,203.3,211.99,201.96z M181.59,209.75c0.77-4.68,5.21-7.86,9.89-7.09
					c4.68,0.77,7.86,5.2,7.09,9.88l-2.65,16.1l-1.6,9.76c-0.37,2.25-1.61,4.24-3.48,5.58c-1.88,1.35-4.15,1.88-6.4,1.51
					c-4.68-0.77-7.86-5.2-7.09-9.89L181.59,209.75z M239.12,268.72l34.11,3.29c-3.01,11.53-9.88,21.55-19.68,28.59
					c-11.12,7.98-24.67,11.15-38.18,8.93l-2.35-0.39c-25.65-4.22-43.09-28.52-38.87-54.17l0.69-4.22c2.28,1.83,5.04,3.11,8.12,3.62
					c0,0,0,0,0,0c0.96,0.16,1.92,0.24,2.87,0.24c3.65,0,7.2-1.14,10.23-3.32c1.63-1.17,3.02-2.57,4.14-4.16
					c2.6,2.66,5.95,4.41,9.67,5.03c0.96,0.16,1.92,0.24,2.87,0.24c3.65,0,7.2-1.14,10.23-3.32c0.13-0.1,0.26-0.2,0.39-0.3
					c-0.03,0.25-0.07,0.49-0.09,0.74c-0.45,4.66,0.95,9.23,3.95,12.87C230.24,266.02,234.46,268.27,239.12,268.72z M230.17,237.21
					l3.12-18.95c0,0,0,0,0,0l11.69-71.09c0.37-2.25,1.61-4.24,3.48-5.58c1.88-1.35,4.15-1.88,6.4-1.51
					c2.25,0.37,4.24,1.61,5.58,3.48s1.88,4.15,1.51,6.4l-11.69,71.09c-0.34,2.06,0.79,4.09,2.72,4.89c1.93,0.8,4.16,0.16,5.37-1.55
					l41.84-58.65c1.33-1.86,3.31-3.09,5.59-3.47c2.28-0.38,4.55,0.14,6.41,1.47c1.86,1.33,3.09,3.31,3.47,5.59
					c0.38,2.28-0.14,4.55-1.47,6.41l-43.38,60.85l-28.34-2.89C238.06,233.26,233.72,234.51,230.17,237.21z"/>
			</g>
			<g>
				<path class="st0" d="M287.49,116.14c-3.72-12.23-9.55-22.92-16.58-32.12c-4.84-6.33-10.25-11.94-15.94-16.9l-0.99-0.86
					c-2.26-1.94-4.56-3.8-6.9-5.53l-0.02-0.01l0,0l-0.02-0.02l0,0c-22.06-15.94-48.78-25.85-77.69-27.35v-0.11l-0.61-0.02
					c-1.58-0.05-3.17-0.09-4.77-0.09c-0.39,0-0.77,0-1.15,0.01c-0.38,0-0.76-0.01-1.15-0.01c-1.6,0-3.19,0.04-4.77,0.09l-0.61,0.02
					v0.11c-28.92,1.51-55.64,11.42-77.69,27.35l-0.02,0.02l-0.01,0l-0.02,0.01c-8.57,6.37-16.8,14.09-23.83,23.3
					c-7.03,9.2-12.86,19.89-16.58,32.12c-2.67,8.75-3.92,17.78-3.92,26.8c0,7.72,0.92,15.44,2.66,22.99
					c7.17,31.05,21.66,70.87,43.89,103.33c11.13,16.22,24.2,30.62,39.41,41.04l0,0c18.49,12.68,36.13,15.79,44.36,16.55
					c2.6,0.24,4.82-1.82,4.82-4.43l0,0c0-2.3-1.74-4.22-4.03-4.42c-7.21-0.65-23.14-3.41-40.13-15.03
					c-21.03-14.38-38.45-37.77-51.79-63.31c-13.36-25.52-22.68-53.15-27.88-75.73c-1.6-6.92-2.43-13.98-2.43-21
					c0-8.2,1.14-16.35,3.53-24.21c3.39-11.13,8.69-20.86,15.14-29.32c6.45-8.44,14.06-15.6,22.04-21.54
					c22.1-15.95,49.1-25.48,78.35-25.86h0c0.21,0,0.43,0,0.65,0c0.22,0,0.44,0,0.65,0h0c29.25,0.39,56.26,9.91,78.35,25.86
					c7.99,5.93,15.6,13.1,22.04,21.54c6.46,8.45,11.75,18.18,15.14,29.32c0.87,2.84,1.53,5.85,1.97,8.1
					c0.41,2.08,2.22,3.57,4.34,3.57h0c2.79,0,4.88-2.54,4.34-5.27C289.11,122.38,288.36,119.01,287.49,116.14z"/>
				<polygon class="st0" points="78.54,60.72 78.55,60.71 78.55,60.71 				"/>
				<path class="st0" d="M94.46,142.45c9.62,2.4,24.49,8.12,35.33,21.53l0,0c12.72,15.73,11.32,27.56,9.29,33.3
					c-0.95,2.69-3.34,4.59-6.16,5.02c-1.09,0.17-2.37,0.28-3.81,0.28c-7.11,0-18.11-2.81-29.72-16.23l0,0
					c-11.82-14.62-14.81-27.69-15.26-36.05c-0.46-8.62,0.5-8.83,1.37-9.44C86.38,140.26,94.46,142.45,94.46,142.45z M85.76,131.98
					L85.76,131.98c-4.89,0-9.07,3.49-9.94,8.3c-1.08,5.95-3.06,27.27,16.66,51.66l0.09,0.12l0.1,0.11
					c13.8,15.95,27.43,19.3,36.44,19.3c1.74,0,3.47-0.13,5.13-0.38c6.11-0.92,11.17-5.08,13.2-10.84
					c2.62-7.42,4.71-22.71-10.76-41.85c-17.15-21.22-42.47-25.54-49.82-26.36C86.51,132,86.14,131.98,85.76,131.98L85.76,131.98z"/>
			</g>
		</g>
	</g>
	<g>
		<g>
			<g>
				<path class="st0" d="M68.24,995.85c4.81-3.96,10.84-5.81,16.9-5.23l83.43,8.51c4.34,0.44,8.58-1.48,11.11-5.03l121.19-169.98
					c7.34-10.3,10.23-22.87,8.14-35.41c-2.1-12.54-8.92-23.49-19.22-30.83c-10.29-7.35-22.87-10.23-35.41-8.14
					c-12.54,2.1-23.49,8.92-30.83,19.22l-82.62,115.8l23.08-140.37c2.05-12.48-0.9-25.04-8.31-35.37
					c-7.41-10.33-18.37-17.15-30.84-19.2c-12.48-2.05-25.04,0.9-35.37,8.31c-10.33,7.41-17.15,18.37-19.2,30.84L48.33,862.57
					c-6.29-5.06-13.78-8.44-21.93-9.78c-12.48-2.05-25.04,0.9-35.37,8.31c-4.39,3.15-8.14,6.94-11.16,11.22
					c-6.82-6.94-15.8-11.86-26.11-13.56c-25.84-4.25-50.32,13.32-54.57,39.16l-11.47,69.78l-8.59,52.24
					c-13.56,82.45,42.49,160.55,124.93,174.1l6.33,1.04c8.92,1.47,17.85,2.19,26.72,2.19c33.7,0,66.49-10.48,94.41-30.52
					c35.27-25.31,58.58-62.84,65.62-105.68c0.55-3.31-0.31-6.71-2.36-9.37c-2.05-2.66-5.11-4.36-8.45-4.68l-105.58-10.18
					c-6.13-0.59-11.7-3.56-15.66-8.37c-3.96-4.81-5.82-10.84-5.23-16.97C60.46,1005.37,63.43,999.81,68.24,995.85z M5.19,880.82
					c4.02-2.88,8.71-4.39,13.52-4.39c1.25,0,2.51,0.1,3.76,0.31c6.08,1,11.43,4.34,15.06,9.4c3.63,5.06,5.08,11.2,4.08,17.28
					L30.14,973.2c-1,6.08-4.34,11.43-9.4,15.06c-5.06,3.63-11.2,5.08-17.28,4.08c0,0,0,0,0,0c-6.08-1-11.43-4.34-15.06-9.4
					c-3.63-5.06-5.08-11.2-4.08-17.28l1.46-8.9l7.14-43.44c0,0,0,0,0-0.01l2.87-17.44C-3.21,889.81,0.12,884.46,5.19,880.82z
					 M-76.86,901.86c2.08-12.64,14.05-21.22,26.68-19.15c12.63,2.08,21.22,14.04,19.15,26.67l-7.14,43.44l-4.33,26.34
					c-1,6.08-4.34,11.43-9.4,15.06c-5.06,3.63-11.2,5.08-17.28,4.08c-12.63-2.08-21.22-14.05-19.15-26.68L-76.86,901.86z
					 M78.43,1061.01l92.07,8.87c-8.13,31.11-26.67,58.17-53.12,77.15c-30.01,21.53-66.6,30.09-103.04,24.1L8,1170.09
					c-69.24-11.38-116.31-76.98-104.92-146.22l1.87-11.38c6.15,4.93,13.61,8.41,21.93,9.78c0,0,0,0,0,0
					c2.59,0.42,5.18,0.64,7.75,0.64c9.84,0,19.43-3.07,27.61-8.95c4.39-3.15,8.14-6.95,11.17-11.22
					c7.02,7.17,16.07,11.91,26.11,13.57c2.59,0.42,5.18,0.64,7.75,0.64c9.84,0,19.43-3.07,27.61-8.95c0.36-0.26,0.71-0.53,1.06-0.8
					c-0.09,0.66-0.18,1.33-0.24,2c-1.21,12.59,2.57,24.92,10.66,34.73C54.45,1053.73,65.84,1059.8,78.43,1061.01z M54.28,975.96
					l8.41-51.15c0,0,0,0,0-0.01l31.55-191.89c1-6.08,4.34-11.43,9.4-15.06c5.06-3.63,11.2-5.08,17.28-4.08
					c6.08,1,11.43,4.34,15.06,9.4c3.63,5.06,5.08,11.2,4.08,17.28l-31.55,191.88c-0.92,5.57,2.13,11.03,7.35,13.19
					c5.22,2.15,11.23,0.42,14.51-4.17l112.94-158.3c3.58-5.02,8.94-8.35,15.08-9.37c6.14-1.03,12.29,0.38,17.31,3.96
					c5.02,3.58,8.35,8.94,9.37,15.08c1.03,6.15-0.38,12.29-3.96,17.31l-117.1,164.24l-76.48-7.81
					C75.57,965.31,63.84,968.68,54.28,975.96z"/>
			</g>
			<g>
				<path class="st0" d="M208.98,649.21c-10.05-33-25.78-61.85-44.76-86.69c-13.05-17.09-27.66-32.22-43.02-45.63l-2.68-2.32
					c-6.11-5.23-12.32-10.25-18.62-14.93l-0.05-0.04l-0.01-0.01l-0.07-0.05l0,0c-59.54-43.02-131.66-69.76-209.7-73.83v-0.31
					l-1.66-0.05c-4.27-0.14-8.56-0.24-12.88-0.24c-1.04,0-2.08,0.01-3.1,0.02c-1.03-0.01-2.06-0.02-3.1-0.02
					c-4.32,0-8.6,0.1-12.88,0.24l-1.66,0.05v0.31c-78.04,4.07-150.17,30.81-209.7,73.83l-0.06,0.04l-0.02,0.01l-0.05,0.04
					c-23.13,17.18-45.34,38.03-64.32,62.88c-18.97,24.84-34.7,53.69-44.76,86.69c-7.19,23.61-10.58,47.98-10.58,72.34
					c0,20.85,2.48,41.68,7.17,62.06c19.34,83.81,58.46,191.29,118.47,278.9c30.03,43.78,65.33,82.64,106.38,110.78l0,0
					c49.89,34.23,97.52,42.62,119.72,44.66c7.01,0.64,13.02-4.91,13.02-11.95l0,0c0-6.2-4.7-11.38-10.88-11.93
					c-19.45-1.75-62.46-9.2-108.31-40.56c-56.75-38.81-103.77-101.94-139.79-170.87c-36.06-68.89-61.2-143.45-75.24-204.41
					c-4.31-18.69-6.56-37.73-6.56-56.68c0-22.14,3.08-44.14,9.54-65.35c9.16-30.05,23.45-56.31,40.88-79.13
					c17.4-22.79,37.94-42.12,59.5-58.13c59.64-43.06,132.53-68.77,211.48-69.81h0c0.57-0.01,1.16-0.01,1.76-0.01
					c0.6,0.01,1.18,0,1.76,0.01h0c78.95,1.04,151.84,26.75,211.48,69.81c21.56,16.02,42.1,35.35,59.5,58.13
					c17.42,22.82,31.71,49.08,40.88,79.13c2.34,7.66,4.13,15.78,5.33,21.85c1.1,5.6,6,9.63,11.71,9.63h0
					c7.52,0,13.16-6.85,11.71-14.23C213.34,666.04,211.34,656.93,208.98,649.21z"/>
				<polygon class="st0" points="-355,499.62 -354.96,499.59 -354.95,499.59 				"/>
				<path class="st0" d="M-312.02,720.22c25.98,6.48,66.11,21.91,95.37,58.11l0,0c34.33,42.47,30.55,74.39,25.07,89.88
					c-2.57,7.26-9.01,12.39-16.62,13.54c-2.95,0.45-6.4,0.76-10.28,0.76c-19.19,0-48.89-7.58-80.23-43.8l0,0
					c-31.89-39.45-39.98-74.75-41.18-97.31c-1.24-23.27,1.36-23.84,3.71-25.48C-333.83,714.29-312.02,720.22-312.02,720.22z
					 M-335.49,691.94L-335.49,691.94c-13.19,0-24.48,9.42-26.82,22.4c-2.91,16.07-8.25,73.6,44.96,139.43l0.25,0.31l0.26,0.3
					c37.24,43.05,74.05,52.09,98.36,52.09c4.7,0,9.36-0.34,13.86-1.02c16.49-2.49,30.14-13.7,35.64-29.26
					c7.08-20.02,12.71-61.31-29.03-112.95c-46.3-57.28-114.62-68.93-134.46-71.14C-333.47,692-334.49,691.94-335.49,691.94
					L-335.49,691.94z"/>
			</g>
		</g>
	</g>
	<g>
		<g>
			<g>
				<path d="M-795.76,995.85c4.81-3.96,10.84-5.81,16.9-5.23l83.43,8.51c4.34,0.44,8.58-1.48,11.11-5.03l121.19-169.98
					c7.34-10.3,10.23-22.87,8.14-35.41c-2.1-12.54-8.92-23.49-19.22-30.83c-10.29-7.35-22.87-10.23-35.41-8.14
					c-12.54,2.1-23.49,8.92-30.83,19.22l-82.62,115.8l23.08-140.37c2.05-12.48-0.9-25.04-8.31-35.37
					c-7.41-10.33-18.37-17.15-30.84-19.2c-12.48-2.05-25.04,0.9-35.37,8.31c-10.33,7.41-17.15,18.37-19.2,30.84l-21.97,133.59
					c-6.29-5.06-13.78-8.44-21.93-9.78c-12.48-2.05-25.04,0.9-35.37,8.31c-4.39,3.15-8.14,6.94-11.16,11.22
					c-6.82-6.94-15.8-11.86-26.11-13.56c-25.84-4.25-50.32,13.32-54.57,39.16l-11.47,69.78l-8.59,52.24
					c-13.56,82.45,42.49,160.55,124.93,174.1l6.33,1.04c8.92,1.47,17.85,2.19,26.72,2.19c33.7,0,66.49-10.48,94.41-30.52
					c35.27-25.31,58.58-62.84,65.62-105.68c0.55-3.31-0.31-6.71-2.36-9.37c-2.05-2.66-5.11-4.36-8.45-4.68l-105.58-10.18
					c-6.14-0.59-11.7-3.56-15.66-8.37c-3.96-4.81-5.82-10.84-5.23-16.97C-803.54,1005.37-800.57,999.81-795.76,995.85z
					 M-858.81,880.82c4.02-2.88,8.71-4.39,13.52-4.39c1.25,0,2.51,0.1,3.76,0.31c6.08,1,11.43,4.34,15.06,9.4
					c3.63,5.06,5.08,11.2,4.08,17.28l-11.47,69.78c-1,6.08-4.34,11.43-9.4,15.06c-5.06,3.63-11.2,5.08-17.28,4.08c0,0,0,0,0,0
					c-6.08-1-11.43-4.34-15.06-9.4c-3.63-5.06-5.08-11.2-4.08-17.28l1.46-8.9l7.14-43.44c0,0,0,0,0-0.01l2.87-17.44
					C-867.21,889.81-863.88,884.46-858.81,880.82z M-940.86,901.86c2.08-12.64,14.05-21.22,26.68-19.15
					c12.63,2.08,21.22,14.04,19.15,26.67l-7.14,43.44l-4.33,26.34c-1,6.08-4.34,11.43-9.4,15.06c-5.06,3.63-11.2,5.08-17.28,4.08
					c-12.63-2.08-21.22-14.05-19.15-26.68L-940.86,901.86z M-785.57,1061.01l92.07,8.87c-8.13,31.11-26.67,58.17-53.12,77.15
					c-30.01,21.53-66.6,30.09-103.04,24.1l-6.33-1.04c-69.24-11.38-116.31-76.98-104.92-146.22l1.87-11.38
					c6.15,4.93,13.61,8.41,21.93,9.78c0,0,0,0,0,0c2.59,0.42,5.18,0.64,7.75,0.64c9.84,0,19.43-3.07,27.61-8.95
					c4.39-3.15,8.14-6.95,11.17-11.22c7.02,7.17,16.07,11.91,26.11,13.57c2.59,0.42,5.18,0.64,7.75,0.64
					c9.84,0,19.43-3.07,27.61-8.95c0.36-0.26,0.71-0.53,1.06-0.8c-0.09,0.66-0.18,1.33-0.24,2c-1.21,12.59,2.57,24.92,10.66,34.73
					C-809.55,1053.73-798.16,1059.8-785.57,1061.01z M-809.72,975.96l8.41-51.15c0,0,0,0,0-0.01l31.55-191.89
					c1-6.08,4.34-11.43,9.4-15.06c5.06-3.63,11.2-5.08,17.28-4.08c6.08,1,11.43,4.34,15.06,9.4c3.63,5.06,5.08,11.2,4.08,17.28
					l-31.55,191.88c-0.92,5.57,2.13,11.03,7.35,13.19c5.22,2.15,11.23,0.42,14.51-4.17l112.94-158.3c3.58-5.02,8.94-8.35,15.08-9.37
					c6.14-1.03,12.29,0.38,17.31,3.96c5.02,3.58,8.35,8.94,9.37,15.08c1.03,6.15-0.38,12.29-3.96,17.31l-117.1,164.24l-76.48-7.81
					C-788.43,965.31-800.16,968.68-809.72,975.96z"/>
			</g>
			<g>
				<path d="M-655.02,649.21c-10.05-33-25.78-61.85-44.76-86.69c-13.05-17.09-27.66-32.22-43.02-45.63l-2.68-2.32
					c-6.11-5.23-12.32-10.25-18.62-14.93l-0.05-0.04l-0.01-0.01l-0.07-0.05l0,0c-59.54-43.02-131.66-69.76-209.7-73.83v-0.31
					l-1.66-0.05c-4.27-0.14-8.56-0.24-12.88-0.24c-1.04,0-2.08,0.01-3.1,0.02c-1.03-0.01-2.06-0.02-3.1-0.02
					c-4.32,0-8.6,0.1-12.88,0.24l-1.66,0.05v0.31c-78.04,4.07-150.17,30.81-209.7,73.83l-0.06,0.04l-0.02,0.01l-0.05,0.04
					c-23.13,17.18-45.34,38.03-64.32,62.88c-18.97,24.84-34.7,53.69-44.76,86.69c-7.19,23.61-10.58,47.98-10.58,72.34
					c0,20.85,2.48,41.68,7.17,62.06c19.34,83.81,58.46,191.29,118.47,278.9c30.03,43.78,65.33,82.64,106.38,110.78l0,0
					c49.89,34.23,97.52,42.62,119.72,44.66c7.01,0.64,13.02-4.91,13.02-11.95l0,0c0-6.2-4.7-11.38-10.88-11.93
					c-19.45-1.75-62.46-9.2-108.31-40.56c-56.75-38.81-103.77-101.94-139.79-170.87c-36.06-68.89-61.2-143.45-75.24-204.41
					c-4.31-18.69-6.56-37.73-6.56-56.68c0-22.14,3.08-44.14,9.54-65.35c9.16-30.05,23.45-56.31,40.88-79.13
					c17.4-22.79,37.94-42.12,59.5-58.13c59.64-43.06,132.53-68.77,211.48-69.81h0c0.57-0.01,1.16-0.01,1.76-0.01
					c0.6,0.01,1.18,0,1.76,0.01h0c78.95,1.04,151.84,26.75,211.48,69.81c21.56,16.02,42.1,35.35,59.5,58.13
					c17.42,22.82,31.71,49.08,40.88,79.13c2.34,7.66,4.13,15.78,5.33,21.85c1.1,5.6,6,9.63,11.71,9.63h0
					c7.52,0,13.16-6.85,11.71-14.23C-650.66,666.04-652.66,656.93-655.02,649.21z"/>
				<polygon points="-1219,499.62 -1218.96,499.59 -1218.95,499.59 				"/>
				<path d="M-1176.02,720.22c25.98,6.48,66.11,21.91,95.37,58.11l0,0c34.33,42.47,30.55,74.39,25.07,89.88
					c-2.57,7.26-9.01,12.39-16.62,13.54c-2.95,0.45-6.4,0.76-10.28,0.76c-19.19,0-48.89-7.58-80.23-43.8l0,0
					c-31.89-39.45-39.98-74.75-41.18-97.31c-1.24-23.27,1.36-23.84,3.71-25.48C-1197.83,714.29-1176.02,720.22-1176.02,720.22z
					 M-1199.49,691.94L-1199.49,691.94c-13.19,0-24.48,9.42-26.82,22.4c-2.91,16.07-8.25,73.6,44.96,139.43l0.25,0.31l0.26,0.3
					c37.24,43.05,74.05,52.09,98.36,52.09c4.7,0,9.36-0.34,13.86-1.02c16.49-2.49,30.14-13.7,35.64-29.26
					c7.08-20.02,12.71-61.31-29.03-112.95c-46.3-57.28-114.62-68.93-134.46-71.14C-1197.47,692-1198.49,691.94-1199.49,691.94
					L-1199.49,691.94z"/>
			</g>
		</g>
	</g>
	<g>
		<g>
			<path d="M-985.77,213.68v-77.61c0-1.44,0.72-2.17,2.17-2.17h30.2c6.29,0,11.17,1.7,14.66,5.1c3.48,3.4,5.22,8.2,5.22,14.4v6.24
				c0,7.39-3.48,12.15-10.45,14.27c3.31,0.43,6.05,1.87,8.22,4.33c2.17,2.47,3.25,5.78,3.25,9.94v8.16c0,6.2-1.74,11-5.23,14.4
				c-3.48,3.4-8.33,5.1-14.53,5.1h-31.35C-985.05,215.84-985.77,215.12-985.77,213.68z M-972.01,168.82h16.57
				c6.46,0,9.69-3.1,9.69-9.3v-5.86c0-6.12-3.14-9.17-9.43-9.17h-16.82c-0.94,0-1.4,0.43-1.4,1.27v21.79
				C-973.41,168.39-972.94,168.82-972.01,168.82z M-972.01,205.26h17.84c6.37,0,9.56-3.06,9.56-9.18v-7.9
				c0-6.12-3.36-9.18-10.07-9.18h-17.33c-0.94,0-1.4,0.43-1.4,1.28v23.7C-973.41,204.84-972.94,205.26-972.01,205.26z"/>
			<path d="M-870.69,215.84h-27.53c-6.29,0-11.15-1.74-14.59-5.23c-3.44-3.48-5.16-8.32-5.16-14.53V170.6
				c0-6.29,1.72-11.15,5.16-14.59c3.44-3.44,8.3-5.16,14.59-5.16h10.45c6.29,0,11.17,1.72,14.65,5.16c3.48,3.44,5.23,8.3,5.23,14.59
				v16.18c0,1.53-0.76,2.29-2.29,2.29h-34.15c-0.94,0-1.4,0.43-1.4,1.27v5.48c0,6.2,3.1,9.3,9.3,9.3h25.74
				c1.53,0,2.29,0.76,2.29,2.29v6.37C-868.4,215.16-869.16,215.84-870.69,215.84z M-904.34,180.41h22.81c0.85,0,1.27-0.42,1.27-1.28
				v-8.16c0-3.23-0.72-5.58-2.17-7.07c-1.45-1.48-3.78-2.23-7.01-2.23h-7.01c-3.23,0-5.57,0.75-7.01,2.23
				c-1.45,1.49-2.17,3.84-2.17,7.07v8.16C-905.61,179.99-905.19,180.41-904.34,180.41z"/>
			<path d="M-830.42,215.84h-4.97c-6.29,0-11.15-1.74-14.59-5.23c-3.44-3.48-5.16-8.32-5.16-14.53V170.6
				c0-6.29,1.72-11.15,5.16-14.59s8.3-5.16,14.59-5.16h28.55c1.53,0,2.29,0.72,2.29,2.17v60.66c0,1.44-0.76,2.17-2.29,2.17h-8.03
				c-1.44,0-2.17-0.72-2.17-2.17v-4.59h-0.51C-819.59,213.59-823.88,215.84-830.42,215.84z M-817.04,194.18v-31.22
				c0-0.85-0.47-1.28-1.4-1.28h-15.17c-6.12,0-9.18,3.14-9.18,9.43v24.47c0,6.29,3.06,9.43,9.18,9.43h6.12
				C-820.53,205.01-817.04,201.4-817.04,194.18z"/>
			<path d="M-778.43,215.84h-8.03c-1.45,0-2.17-0.72-2.17-2.17v-60.66c0-1.44,0.72-2.17,2.17-2.17h8.03c1.44,0,2.17,0.72,2.17,2.17
				v4.59h0.51c2.46-4.5,6.97-6.75,13.51-6.75h4.21c7.39,0,12.66,2.8,15.8,8.41c1.36-2.72,3.44-4.8,6.24-6.24
				c2.8-1.44,5.82-2.17,9.05-2.17h4.08c6.2,0,10.94,1.72,14.21,5.16c3.27,3.44,4.91,8.3,4.91,14.59v43.07
				c0,1.44-0.72,2.17-2.17,2.17h-8.16c-1.44,0-2.17-0.72-2.17-2.17v-42.56c0-6.29-3.06-9.43-9.18-9.43h-3.7
				c-7.05,0-10.58,3.7-10.58,11.09v40.91c0,1.44-0.76,2.17-2.29,2.17h-8.03c-1.45,0-2.17-0.72-2.17-2.17v-42.56
				c0-6.29-3.06-9.43-9.18-9.43h-4.46c-6.97,0-10.45,3.61-10.45,10.83v41.16C-776.26,215.12-776.98,215.84-778.43,215.84z"/>
			<path d="M-678.14,215.84h-8.03c-1.45,0-2.17-0.72-2.17-2.17v-60.66c0-1.44,0.72-2.17,2.17-2.17h8.03c1.44,0,2.17,0.72,2.17,2.17
				v4.59h0.51c2.46-4.5,6.97-6.75,13.51-6.75h4.21c7.39,0,12.66,2.8,15.8,8.41c1.36-2.72,3.44-4.8,6.24-6.24
				c2.8-1.44,5.82-2.17,9.05-2.17h4.08c6.2,0,10.94,1.72,14.21,5.16c3.27,3.44,4.91,8.3,4.91,14.59v43.07
				c0,1.44-0.72,2.17-2.17,2.17h-8.16c-1.44,0-2.17-0.72-2.17-2.17v-42.56c0-6.29-3.06-9.43-9.18-9.43h-3.7
				c-7.05,0-10.58,3.7-10.58,11.09v40.91c0,1.44-0.76,2.17-2.29,2.17h-8.03c-1.45,0-2.17-0.72-2.17-2.17v-42.56
				c0-6.29-3.06-9.43-9.18-9.43h-4.46c-6.97,0-10.45,3.61-10.45,10.83v41.16C-675.97,215.12-676.69,215.84-678.14,215.84z"/>
			<path d="M-542.03,215.84h-27.53c-6.29,0-11.15-1.74-14.59-5.23c-3.44-3.48-5.16-8.32-5.16-14.53V170.6
				c0-6.29,1.72-11.15,5.16-14.59c3.44-3.44,8.3-5.16,14.59-5.16h10.45c6.29,0,11.17,1.72,14.65,5.16c3.48,3.44,5.23,8.3,5.23,14.59
				v16.18c0,1.53-0.76,2.29-2.29,2.29h-34.15c-0.94,0-1.4,0.43-1.4,1.27v5.48c0,6.2,3.1,9.3,9.3,9.3h25.74
				c1.53,0,2.29,0.76,2.29,2.29v6.37C-539.74,215.16-540.5,215.84-542.03,215.84z M-575.68,180.41h22.81c0.85,0,1.27-0.42,1.27-1.28
				v-8.16c0-3.23-0.72-5.58-2.17-7.07c-1.45-1.48-3.78-2.23-7.01-2.23h-7.01c-3.23,0-5.57,0.75-7.01,2.23
				c-1.45,1.49-2.17,3.84-2.17,7.07v8.16C-576.95,179.99-576.53,180.41-575.68,180.41z"/>
			<path d="M-501.13,215.84h-5.73c-6.12,0-10.81-1.72-14.08-5.16c-3.27-3.44-4.91-8.3-4.91-14.59v-43.07c0-1.44,0.72-2.17,2.17-2.17
				h8.03c1.44,0,2.17,0.72,2.17,2.17v42.56c0,6.29,3.06,9.43,9.18,9.43h6.12c6.97,0,10.45-3.61,10.45-10.83v-41.16
				c0-1.44,0.72-2.17,2.17-2.17h8.03c1.53,0,2.29,0.72,2.29,2.17v60.66c0,1.44-0.76,2.17-2.29,2.17h-8.03
				c-1.45,0-2.17-0.72-2.17-2.17v-4.59h-0.51C-490.29,213.59-494.59,215.84-501.13,215.84z"/>
			<path d="M-449.13,233.81h-8.03c-1.45,0-2.17-0.72-2.17-2.17v-78.63c0-1.44,0.72-2.17,2.17-2.17h8.03c1.44,0,2.17,0.72,2.17,2.17
				v4.59h0.51c2.04-4.5,6.33-6.75,12.87-6.75h6.5c6.12,0,10.81,1.7,14.08,5.1c3.27,3.4,4.91,8.28,4.91,14.66v25.49
				c0,6.29-1.64,11.15-4.91,14.59c-3.27,3.44-7.96,5.16-14.08,5.16h-6.5c-6.54,0-10.83-2.25-12.87-6.75h-0.51v22.56
				C-446.97,233.09-447.69,233.81-449.13,233.81z M-436.52,205.01h6.75c6.12,0,9.18-3.14,9.18-9.43v-24.47
				c0-6.29-3.06-9.43-9.18-9.43h-6.75c-6.97,0-10.45,3.61-10.45,10.83v21.66C-446.97,201.4-443.48,205.01-436.52,205.01z"/>
			<path d="M-370.12,215.84h-23.45c-1.45,0-2.17-0.72-2.17-2.17v-6.24c0-1.36,0.72-2.04,2.17-2.04h21.41c5.52,0,8.28-1.91,8.28-5.73
				v-1.53c0-3.4-2-5.99-5.99-7.77l-13.89-6.63c-4.33-2.04-7.48-4.29-9.43-6.75c-1.96-2.46-2.93-5.69-2.93-9.69
				c0-10.96,6.07-16.44,18.22-16.44h21.15c1.36,0,2.04,0.72,2.04,2.17v6.24c0,1.44-0.68,2.17-2.04,2.17h-18.61
				c-2.55,0-4.5,0.45-5.86,1.34c-1.36,0.89-2.04,2.06-2.04,3.51v1.4c0,2.72,2.17,5.1,6.5,7.14l14.02,7.14
				c4.42,1.95,7.45,4.27,9.11,6.95c1.66,2.68,2.49,6.14,2.49,10.39C-351.13,210.32-357.46,215.84-370.12,215.84z"/>
			<path d="M-298.37,207.18v6.63c0,1.36-0.76,2.04-2.29,2.04h-18.73c-6.29,0-11.15-1.74-14.59-5.23c-3.44-3.48-5.16-8.32-5.16-14.53
				V170.6c0-6.29,1.72-11.15,5.16-14.59s8.3-5.16,14.59-5.16h18.73c1.53,0,2.29,0.72,2.29,2.17v6.63c0,1.36-0.76,2.04-2.29,2.04
				h-16.95c-6.12,0-9.18,3.14-9.18,9.43v24.47c0,6.29,3.06,9.43,9.18,9.43h16.95C-299.14,205.01-298.37,205.73-298.37,207.18z"/>
			<path d="M-256.57,215.84h-11.21c-6.29,0-11.15-1.74-14.59-5.23c-3.44-3.48-5.16-8.32-5.16-14.53V170.6
				c0-6.29,1.72-11.15,5.16-14.59s8.3-5.16,14.59-5.16h11.21c6.2,0,11.06,1.72,14.59,5.16c3.52,3.44,5.29,8.3,5.29,14.59v25.49
				c0,6.2-1.76,11.05-5.29,14.53C-245.51,214.1-250.37,215.84-256.57,215.84z M-266,205.01h7.77c6.12,0,9.18-3.1,9.18-9.3v-24.72
				c0-6.2-3.06-9.3-9.18-9.3H-266c-3.23,0-5.57,0.75-7.01,2.23c-1.45,1.49-2.17,3.84-2.17,7.07v24.72c0,3.23,0.72,5.59,2.17,7.07
				C-271.57,204.27-269.23,205.01-266,205.01z"/>
			<path d="M-220.13,161.68h-6.12c-0.85,0-1.42-0.15-1.72-0.45c-0.3-0.3-0.45-0.83-0.45-1.59v-6.63c0-1.44,0.72-2.17,2.17-2.17h6.12
				c0.85,0,1.27-0.42,1.27-1.28V138.1c0-1.44,0.77-2.17,2.29-2.17h8.03c1.44,0,2.17,0.72,2.17,2.17v11.47c0,0.85,0.47,1.28,1.4,1.28
				h11.85c1.53,0,2.29,0.72,2.29,2.17v6.63c0,1.36-0.76,2.04-2.29,2.04h-11.85c-0.94,0-1.4,0.43-1.4,1.28v32.75
				c0,6.2,3.19,9.3,9.56,9.3h4.97c1.53,0,2.29,0.72,2.29,2.17v6.63c0,1.36-0.77,2.04-2.29,2.04h-6.88c-6.29,0-11.22-1.7-14.78-5.1
				c-3.57-3.4-5.35-8.2-5.35-14.4v-33.39C-218.85,162.11-219.28,161.68-220.13,161.68z"/>
			<path d="M-175.4,161.68h-6.12c-0.85,0-1.42-0.15-1.72-0.45c-0.3-0.3-0.45-0.83-0.45-1.59v-6.63c0-1.44,0.72-2.17,2.17-2.17h6.12
				c0.85,0,1.27-0.42,1.27-1.28V138.1c0-1.44,0.77-2.17,2.29-2.17h8.03c1.44,0,2.17,0.72,2.17,2.17v11.47c0,0.85,0.47,1.28,1.4,1.28
				h11.85c1.53,0,2.29,0.72,2.29,2.17v6.63c0,1.36-0.76,2.04-2.29,2.04h-11.85c-0.94,0-1.4,0.43-1.4,1.28v32.75
				c0,6.2,3.19,9.3,9.56,9.3h4.97c1.53,0,2.29,0.72,2.29,2.17v6.63c0,1.36-0.77,2.04-2.29,2.04h-6.88c-6.29,0-11.22-1.7-14.78-5.1
				c-3.57-3.4-5.35-8.2-5.35-14.4v-33.39C-174.12,162.11-174.55,161.68-175.4,161.68z"/>
			<path d="M-131.94,140.02v-11.6c0-1.36,0.68-2.04,2.04-2.04h8.28c1.36,0,2.04,0.68,2.04,2.04v11.6c0,1.45-0.68,2.17-2.04,2.17
				h-8.28C-131.26,142.18-131.94,141.46-131.94,140.02z M-131.94,213.68v-60.66c0-1.44,0.68-2.17,2.04-2.17h8.16
				c1.44,0,2.17,0.72,2.17,2.17v60.66c0,0.85-0.15,1.42-0.45,1.72c-0.3,0.3-0.83,0.45-1.59,0.45h-8.16
				C-131.22,215.84-131.94,215.12-131.94,213.68z"/>
			<path d="M-102.25,140.02v-11.6c0-1.36,0.68-2.04,2.04-2.04h8.28c1.36,0,2.04,0.68,2.04,2.04v11.6c0,1.45-0.68,2.17-2.04,2.17
				h-8.28C-101.57,142.18-102.25,141.46-102.25,140.02z M-102.25,213.68v-60.66c0-1.44,0.68-2.17,2.04-2.17h8.16
				c1.44,0,2.17,0.72,2.17,2.17v60.66c0,0.85-0.15,1.42-0.45,1.72c-0.3,0.3-0.83,0.45-1.59,0.45h-8.16
				C-101.53,215.84-102.25,215.12-102.25,213.68z"/>
			<path d="M-72.56,140.02v-11.6c0-1.36,0.68-2.04,2.04-2.04h8.28c1.36,0,2.04,0.68,2.04,2.04v11.6c0,1.45-0.68,2.17-2.04,2.17
				h-8.28C-71.88,142.18-72.56,141.46-72.56,140.02z M-72.56,213.68v-60.66c0-1.44,0.68-2.17,2.04-2.17h8.16
				c1.44,0,2.17,0.72,2.17,2.17v60.66c0,0.85-0.15,1.42-0.45,1.72c-0.3,0.3-0.83,0.45-1.59,0.45h-8.16
				C-71.84,215.84-72.56,215.12-72.56,213.68z"/>
		</g>
		<g>
			<g>
				<path d="M-1131.65,244.57c1.78-1.47,4.02-2.15,6.26-1.94l30.91,3.15c1.61,0.16,3.18-0.55,4.12-1.86l44.9-62.98
					c2.72-3.81,3.79-8.47,3.01-13.12c-0.78-4.65-3.31-8.7-7.12-11.42c-3.81-2.72-8.47-3.79-13.12-3.01
					c-4.65,0.78-8.7,3.31-11.42,7.12l-30.61,42.9l8.55-52.01c0.76-4.62-0.33-9.28-3.08-13.1c-2.75-3.83-6.8-6.35-11.43-7.11
					c-4.62-0.76-9.28,0.33-13.1,3.08c-3.83,2.75-6.35,6.8-7.11,11.43l-8.14,49.5c-2.33-1.87-5.1-3.13-8.12-3.62
					c-4.62-0.76-9.28,0.33-13.1,3.08c-1.63,1.17-3.01,2.57-4.14,4.16c-2.53-2.57-5.85-4.4-9.68-5.02
					c-9.57-1.57-18.64,4.93-20.22,14.51l-4.25,25.85l-3.18,19.35c-5.02,30.55,15.74,59.48,46.29,64.5l2.35,0.39
					c3.31,0.54,6.61,0.81,9.9,0.81c12.49,0,24.63-3.88,34.98-11.31c13.07-9.38,21.7-23.28,24.31-39.15c0.2-1.23-0.11-2.48-0.87-3.47
					c-0.76-0.99-1.89-1.61-3.13-1.73l-39.12-3.77c-2.27-0.22-4.33-1.32-5.8-3.1c-1.47-1.78-2.16-4.01-1.94-6.29
					C-1134.54,248.1-1133.44,246.04-1131.65,244.57z M-1155.01,201.96c1.49-1.07,3.23-1.63,5.01-1.63c0.46,0,0.93,0.04,1.39,0.11
					c2.25,0.37,4.24,1.61,5.58,3.48c1.35,1.88,1.88,4.15,1.51,6.4l-4.25,25.85c-0.37,2.25-1.61,4.24-3.48,5.58
					c-1.88,1.35-4.15,1.88-6.4,1.51c0,0,0,0,0,0c-2.25-0.37-4.24-1.61-5.58-3.48c-1.35-1.88-1.88-4.15-1.51-6.4l0.54-3.3l2.65-16.09
					c0,0,0,0,0,0l1.06-6.46C-1158.13,205.28-1156.89,203.3-1155.01,201.96z M-1185.41,209.75c0.77-4.68,5.2-7.86,9.89-7.09
					c4.68,0.77,7.86,5.2,7.09,9.88l-2.65,16.1l-1.6,9.76c-0.37,2.25-1.61,4.24-3.48,5.58c-1.88,1.35-4.15,1.88-6.4,1.51
					c-4.68-0.77-7.86-5.2-7.09-9.89L-1185.41,209.75z M-1127.88,268.72l34.11,3.29c-3.01,11.53-9.88,21.55-19.68,28.59
					c-11.12,7.98-24.67,11.15-38.18,8.93l-2.35-0.39c-25.65-4.22-43.09-28.52-38.87-54.17l0.69-4.22c2.28,1.83,5.04,3.11,8.12,3.62
					c0,0,0,0,0,0c0.96,0.16,1.92,0.24,2.87,0.24c3.65,0,7.2-1.14,10.23-3.32c1.63-1.17,3.02-2.57,4.14-4.16
					c2.6,2.66,5.95,4.41,9.67,5.03c0.96,0.16,1.92,0.24,2.87,0.24c3.65,0,7.2-1.14,10.23-3.32c0.13-0.1,0.26-0.2,0.39-0.3
					c-0.03,0.25-0.07,0.49-0.09,0.74c-0.45,4.66,0.95,9.23,3.95,12.87C-1136.76,266.02-1132.54,268.27-1127.88,268.72z
					 M-1136.83,237.21l3.12-18.95c0,0,0,0,0,0l11.69-71.09c0.37-2.25,1.61-4.24,3.48-5.58c1.88-1.35,4.15-1.88,6.4-1.51
					c2.25,0.37,4.24,1.61,5.58,3.48s1.88,4.15,1.51,6.4l-11.69,71.09c-0.34,2.06,0.79,4.09,2.72,4.89c1.93,0.8,4.16,0.16,5.37-1.55
					l41.84-58.65c1.33-1.86,3.31-3.09,5.59-3.47c2.28-0.38,4.55,0.14,6.41,1.47c1.86,1.33,3.09,3.31,3.47,5.59
					c0.38,2.28-0.14,4.55-1.47,6.41l-43.38,60.85l-28.34-2.89C-1128.94,233.26-1133.28,234.51-1136.83,237.21z"/>
			</g>
			<g>
				<path d="M-1079.51,116.14c-3.72-12.23-9.55-22.92-16.58-32.12c-4.84-6.33-10.25-11.94-15.94-16.9l-0.99-0.86
					c-2.26-1.94-4.56-3.8-6.9-5.53l-0.02-0.01l0,0l-0.02-0.02l0,0c-22.06-15.94-48.78-25.85-77.69-27.35v-0.11l-0.61-0.02
					c-1.58-0.05-3.17-0.09-4.77-0.09c-0.39,0-0.77,0-1.15,0.01c-0.38,0-0.76-0.01-1.15-0.01c-1.6,0-3.19,0.04-4.77,0.09l-0.61,0.02
					v0.11c-28.92,1.51-55.64,11.42-77.69,27.35l-0.02,0.02l-0.01,0l-0.02,0.01c-8.57,6.37-16.8,14.09-23.83,23.3
					c-7.03,9.2-12.86,19.89-16.58,32.12c-2.67,8.75-3.92,17.78-3.92,26.8c0,7.72,0.92,15.44,2.66,22.99
					c7.17,31.05,21.66,70.87,43.89,103.33c11.13,16.22,24.2,30.62,39.41,41.04l0,0c18.49,12.68,36.13,15.79,44.36,16.55
					c2.6,0.24,4.82-1.82,4.82-4.43l0,0c0-2.3-1.74-4.22-4.03-4.42c-7.21-0.65-23.14-3.41-40.13-15.03
					c-21.03-14.38-38.45-37.77-51.79-63.31c-13.36-25.52-22.68-53.15-27.88-75.73c-1.6-6.92-2.43-13.98-2.43-21
					c0-8.2,1.14-16.35,3.53-24.21c3.39-11.13,8.69-20.86,15.14-29.32c6.45-8.44,14.06-15.6,22.04-21.54
					c22.1-15.95,49.1-25.48,78.35-25.86h0c0.21,0,0.43,0,0.65,0c0.22,0,0.44,0,0.65,0l0,0c29.25,0.39,56.26,9.91,78.35,25.86
					c7.99,5.93,15.6,13.1,22.04,21.54c6.46,8.45,11.75,18.18,15.14,29.32c0.87,2.84,1.53,5.85,1.97,8.1
					c0.41,2.08,2.22,3.57,4.34,3.57l0,0c2.79,0,4.88-2.54,4.34-5.27C-1077.89,122.38-1078.64,119.01-1079.51,116.14z"/>
				<polygon points="-1288.46,60.72 -1288.45,60.71 -1288.45,60.71 				"/>
				<path d="M-1272.54,142.45c9.62,2.4,24.49,8.12,35.33,21.53v0c12.72,15.73,11.32,27.56,9.29,33.3c-0.95,2.69-3.34,4.59-6.16,5.02
					c-1.09,0.17-2.37,0.28-3.81,0.28c-7.11,0-18.11-2.81-29.72-16.23l0,0c-11.82-14.62-14.81-27.69-15.26-36.05
					c-0.46-8.62,0.5-8.83,1.37-9.44C-1280.62,140.26-1272.54,142.45-1272.54,142.45z M-1281.24,131.98L-1281.24,131.98
					c-4.89,0-9.07,3.49-9.94,8.3c-1.08,5.95-3.06,27.27,16.66,51.66l0.09,0.12l0.1,0.11c13.8,15.95,27.43,19.3,36.44,19.3
					c1.74,0,3.47-0.13,5.13-0.38c6.11-0.92,11.17-5.08,13.2-10.84c2.62-7.42,4.71-22.71-10.76-41.85
					c-17.15-21.22-42.47-25.54-49.82-26.36C-1280.49,132-1280.86,131.98-1281.24,131.98L-1281.24,131.98z"/>
			</g>
		</g>
	</g>
</g>
</svg>
